<svg id="Capa_1" enable-background="new 0 0 512 512" height="512" viewBox="0 0 512 512" width="512" xmlns="http://www.w3.org/2000/svg"><g><path d="m171.029 192.758-12.087-37.764c-5.64-.207-11.322 1.157-16.304 4.05l-127.281 73.673c-4.755 2.749-8.584 6.654-11.24 11.263l154.331 146.396.494.475 12.087-11.494z" fill="#80bfff"/><path d="m312.779 244.559-153.837 146.293v-140.852l26.688-45.521-26.688-49.486c4.961.124 9.881 1.467 14.328 4.05l128.269 74.252c4.755 2.75 8.584 6.655 11.24 11.264z" fill="#8095ff"/><path d="m158.942 333.613 52.402 82.145-52.402 96.242c-5.29 0-10.581-1.364-15.316-4.112l-128.269-74.253c-9.511-5.497-15.357-15.664-15.357-26.679v-147.554c0-5.518 1.462-10.808 4.117-15.417z" fill="#8095ff"/><path d="m316.896 259.981v147.533c0 11.015-5.846 21.182-15.357 26.679l-127.281 73.694c-4.735 2.748-10.025 4.112-15.316 4.112v-178.386l153.837-89.049c2.655 4.609 4.117 9.899 4.117 15.417z" fill="#8066ff"/><g><path d="m335.47 0 28.849 138.441-28.849 126.559h-161.53c-8.28 0-15-6.72-15-15v-235c0-8.28 6.72-15 15-15z" fill="#e6f2f2"/></g><path d="m272.085 71.308c-.053-.138-.106-.274-.162-.411-2.724-6.619-9.104-10.893-16.261-10.893-.005 0-.012 0-.017 0-7.163.007-13.545 4.295-16.258 10.924-.046.114-.091.228-.135.342l-42.805 112.388c-2.948 7.742.937 16.408 8.679 19.356 1.757.669 3.562.986 5.336.986 6.044 0 11.741-3.681 14.021-9.665l6.981-18.33h48.066l6.901 18.287c2.925 7.75 11.576 11.663 19.33 8.738 7.751-2.925 11.663-11.579 8.738-19.33zm-29.194 74.698 12.718-33.391 12.601 33.391z" fill="#4d628c"/><path d="m512 15v235c0 8.28-6.72 15-15 15h-31.37l-79.25 71.16c-9.127 8.728-25.427 1.416-25.02-11.16v-60h-25.89v-265h161.53c8.28 0 15 6.72 15 15z" fill="#cfe6e6"/><path d="m420.163 147.046c18.52-5.84 31.94-22.642 31.94-42.417 0-24.606-20.771-44.625-46.303-44.625h-30.292c-.006 0-.012.001-.019.001-.006 0-.012-.001-.018-.001-8.284 0-15 6.716-15 15v113.993c0 8.284 6.716 15 15 15s15-6.716 15-15v-30.279l35.372 40.189c2.965 3.369 7.104 5.09 11.266 5.09 3.52 0 7.055-1.232 9.904-3.74 6.219-5.473 6.823-14.951 1.35-21.17zm-14.363-57.043c8.837 0 16.303 6.698 16.303 14.625s-7.466 14.625-16.303 14.625c-3.55 0-9.49.023-15.165.05-.027-5.529-.065-23.516-.081-29.301h15.246z" fill="#283d66"/></g></svg>